<svg width="29" height="29" viewBox="0 0 29 29" fill="none" xmlns="http://www.w3.org/2000/svg">
<path fill-rule="evenodd" clip-rule="evenodd" d="M14.5 29C22.5081 29 29 22.5081 29 14.5C29 6.49187 22.5081 0 14.5 0C6.49187 0 0 6.49187 0 14.5C0 22.5081 6.49187 29 14.5 29ZM3.54999 13.0526C3.24664 11.9205 3.96257 10.7421 5.1465 10.4248L20.172 6.39877C21.3559 6.08154 22.5652 6.74408 22.8685 7.87621L23.4185 9.9288C23.4941 10.211 23.3052 10.4988 23.0518 10.6664C22.4771 11.0438 22.1781 11.7393 22.3586 12.4128C22.5391 13.0863 23.1457 13.539 23.8321 13.5785C24.1354 13.597 24.4429 13.7518 24.5185 14.034L25.0685 16.0866C25.3718 17.2187 24.6559 18.3971 23.472 18.7143L8.44644 22.7404C7.26251 23.0576 6.05331 22.3951 5.74995 21.263L5.19996 19.2104C5.12434 18.9281 5.31323 18.6403 5.56668 18.4727C6.14136 18.0953 6.44031 17.3999 6.25985 16.7264C6.07938 16.0529 5.47278 15.6001 4.78639 15.5606C4.48309 15.5422 4.1756 15.3874 4.09998 15.1052L3.54999 13.0526ZM9.63046 18.5732L8.25549 13.4417C8.17986 13.1595 8.35947 12.8639 8.65462 12.7848L18.3139 10.1966C18.609 10.1175 18.9124 10.2837 18.988 10.566L20.363 15.6974C20.4386 15.9797 20.259 16.2753 19.9638 16.3544L10.3046 18.9426C10.0094 19.0217 9.70609 18.8554 9.63046 18.5732ZM7.84299 11.9023C7.24935 12.0614 6.89263 12.6485 7.04474 13.2162L8.69471 19.3739C8.84682 19.9416 9.44931 20.2717 10.043 20.1127L20.7755 17.2369C21.3691 17.0778 21.7258 16.4907 21.5737 15.923L19.9237 9.76524C19.7716 9.19757 19.1691 8.86745 18.5755 9.02652L7.84299 11.9023Z" fill="#E24444"/>
</svg>
