<svg width="42" height="28" viewBox="0 0 42 28" fill="none" xmlns="http://www.w3.org/2000/svg">
<rect width="42" height="28" rx="3.11111" fill="#016FD0"/>
<rect x="0.777778" y="0.777778" width="40.4444" height="26.4444" rx="2.33333" stroke="black" stroke-opacity="0.2" stroke-width="1.55556"/>
<path fill-rule="evenodd" clip-rule="evenodd" d="M41.5956 20.7667V23.8093H37.7316L36.3036 22.1387L34.8196 23.8093H23.8436V14.9147H20.2222L24.7489 4.66667H29.1542L30.2182 6.99066V4.66667H35.6876L36.6022 7.10267L37.4982 4.66667H41.5956V6.11332H38.4316L36.9942 9.90269L36.6116 10.9293L34.7729 6.11332H31.6089V13.58L28.3236 6.11332H25.7756L22.4716 13.58H24.6369L25.2156 12.1427H28.8369L29.4156 13.58H31.6089H33.5129V8.71733L33.5036 7.73732L33.8769 8.71733L35.6969 13.58H37.5076L39.3369 8.71733L39.6916 7.74667V13.58H41.5956V16.5013L39.4862 18.62L41.5956 20.7667ZM25.3742 22.3627V14.924H31.6089V16.5387H27.2782V17.8453H31.5249V19.4507H27.2782V20.748H31.6089V22.3627H25.3742ZM41.0169 22.3627H38.5436L36.2849 19.936L34.0169 22.3627H31.6089L35.0902 18.6573L31.6089 14.924H34.0916L36.3316 17.3413L38.5809 14.924H41.0169L37.5262 18.6293L41.0169 22.3627Z" fill="white"/>
<path d="M27.0262 7.70932L26.6529 8.64269L25.8782 10.528H28.1742L27.3996 8.64269L27.0262 7.70932Z" fill="white"/>
</svg>
