<svg width="43" height="28" viewBox="0 0 43 28" fill="none" xmlns="http://www.w3.org/2000/svg">
<g clip-path="url(#clip0_1_124)">
<rect x="0.333252" width="42" height="28" rx="3.11111" fill="#231F20"/>
<path d="M42.3333 18.6667C42.3333 18.6667 32.993 25.1105 15.8888 28H42.3333V18.6667Z" fill="#F48120"/>
<path d="M5.08296 10.8117H3.44436V16.5521H5.08296C5.94923 16.5521 6.57545 16.3433 7.12861 15.8945C7.78613 15.3518 8.1723 14.5377 8.1723 13.6923C8.16186 11.9911 6.89899 10.8117 5.08296 10.8117ZM6.39802 15.1326C6.04316 15.4458 5.59437 15.5919 4.86379 15.5919H4.56112V11.7928H4.86379C5.58394 11.7928 6.02229 11.9181 6.39802 12.252C6.78419 12.5965 7.0138 13.1287 7.0138 13.6819C7.0138 14.2351 6.78419 14.7882 6.39802 15.1326Z" fill="white"/>
<path d="M9.80041 10.8117H8.68365V16.5521H9.80041V10.8117Z" fill="white"/>
<path d="M12.5349 13.0139C11.867 12.7634 11.6687 12.5965 11.6687 12.2938C11.6687 11.9285 12.0235 11.6571 12.5036 11.6571C12.8376 11.6571 13.1194 11.7928 13.4012 12.1268L13.9857 11.3649C13.5056 10.9474 12.9315 10.7282 12.2949 10.7282C11.2825 10.7282 10.4997 11.438 10.4997 12.3773C10.4997 13.1705 10.865 13.5775 11.9087 13.9533C12.3471 14.1098 12.5662 14.2142 12.681 14.2768C12.9002 14.4229 13.015 14.6317 13.015 14.8717C13.015 15.3414 12.6497 15.6858 12.1488 15.6858C11.6165 15.6858 11.1886 15.4144 10.9276 14.9239L10.2075 15.6232C10.7189 16.3851 11.3451 16.7191 12.1905 16.7191C13.349 16.7191 14.1735 15.9467 14.1735 14.83C14.1944 13.9011 13.8082 13.4836 12.5349 13.0139Z" fill="white"/>
<path d="M14.5389 13.6923C14.5389 15.3831 15.8644 16.6877 17.5656 16.6877C18.0457 16.6877 18.4632 16.5938 18.9642 16.3538V15.0387C18.5154 15.4875 18.1188 15.6649 17.6178 15.6649C16.4906 15.6649 15.687 14.8508 15.687 13.6819C15.687 12.5756 16.5115 11.7093 17.5656 11.7093C18.0979 11.7093 18.505 11.8972 18.9642 12.3564V11.0414C18.4737 10.7909 18.0666 10.6865 17.5865 10.6865C15.9062 10.6865 14.5389 12.0224 14.5389 13.6923Z" fill="white"/>
<path d="M27.8564 14.6734L26.3222 10.8117H25.101L27.5328 16.6982H28.1382L30.6117 10.8117H29.4011L27.8564 14.6734Z" fill="white"/>
<path d="M31.1232 16.5521H34.296V15.5814H32.2399V14.0368H34.2229V13.0661H32.2399V11.7928H34.296V10.8117H31.1232V16.5521Z" fill="white"/>
<path d="M38.7317 12.5129C38.7317 11.4379 37.9906 10.8222 36.6964 10.8222H35.037V16.5625H36.1537V14.2559H36.2998L37.8445 16.5625H39.2222L37.4166 14.1411C38.262 13.9637 38.7317 13.3897 38.7317 12.5129ZM36.4773 13.4627H36.1537V11.7197H36.4981C37.1974 11.7197 37.5731 12.012 37.5731 12.5756C37.5731 13.1496 37.1974 13.4627 36.4773 13.4627Z" fill="white"/>
<path d="M22.3977 16.7608C24.0866 16.7608 25.4557 15.3917 25.4557 13.7028C25.4557 12.0139 24.0866 10.6447 22.3977 10.6447C20.7088 10.6447 19.3397 12.0139 19.3397 13.7028C19.3397 15.3917 20.7088 16.7608 22.3977 16.7608Z" fill="#F48120"/>
</g>
<rect x="1.11103" y="0.777778" width="40.4444" height="26.4444" rx="2.33333" stroke="white" stroke-opacity="0.2" stroke-width="1.55556"/>
<defs>
<clipPath id="clip0_1_124">
<rect x="0.333252" width="42" height="28" rx="3.11111" fill="white"/>
</clipPath>
</defs>
</svg>
