<svg width="43" height="28" viewBox="0 0 43 28" fill="none" xmlns="http://www.w3.org/2000/svg">
<rect x="0.888916" width="42" height="28" rx="3.11111" fill="#252525"/>
<rect x="1.66669" y="0.777778" width="40.4444" height="26.4444" rx="2.33333" stroke="white" stroke-opacity="0.2" stroke-width="1.55556"/>
<path d="M18.3138 7.49324H25.464V20.3409H18.3138V7.49324Z" fill="#FF5F00"/>
<path d="M18.7678 13.9171C18.7678 11.3067 19.9935 8.99135 21.8776 7.49321C20.4929 6.40366 18.7451 5.74538 16.8384 5.74538C12.3212 5.74538 8.66669 9.39993 8.66669 13.9171C8.66669 18.4342 12.3212 22.0887 16.8384 22.0887C18.7451 22.0887 20.4929 21.4305 21.8776 20.3409C19.9935 18.8655 18.7678 16.5274 18.7678 13.9171Z" fill="#EB001B"/>
<path d="M35.1111 13.9171C35.1111 18.4342 31.4566 22.0887 26.9395 22.0887C25.0327 22.0887 23.2849 21.4305 21.9003 20.3409C23.807 18.8428 25.01 16.5274 25.01 13.9171C25.01 11.3067 23.7843 8.99135 21.9003 7.49321C23.2849 6.40366 25.0327 5.74538 26.9395 5.74538C31.4566 5.74538 35.1111 9.42263 35.1111 13.9171Z" fill="#F79E1B"/>
</svg>
