<svg width="42" height="28" viewBox="0 0 42 28" fill="none" xmlns="http://www.w3.org/2000/svg">
<rect width="42" height="28" rx="3.11111" fill="#FAF8F5"/>
<rect x="0.777778" y="0.777778" width="40.4444" height="26.4444" rx="2.33333" stroke="black" stroke-opacity="0.2" stroke-width="1.55556"/>
<path d="M26.593 10H24.1039C23.9337 10 23.7889 10.123 23.7623 10.2899L22.7557 16.63C22.7358 16.7551 22.833 16.8685 22.9607 16.8685H24.2378C24.3568 16.8685 24.4585 16.7824 24.4768 16.6654L24.7624 14.868C24.7888 14.701 24.9337 14.5781 25.1041 14.5781H25.8918C27.5312 14.5781 28.4774 13.7898 28.7247 12.2276C28.8361 11.5445 28.7292 11.0076 28.4071 10.6319C28.0532 10.2185 27.4257 10 26.593 10ZM26.8802 12.3155C26.7442 13.2031 26.0619 13.2031 25.4018 13.2031H25.0265L25.2898 11.546C25.3058 11.446 25.3927 11.3722 25.4947 11.3722H25.6669C26.1162 11.3722 26.5407 11.3722 26.7594 11.6264C26.8902 11.7785 26.9298 12.0039 26.8802 12.3155Z" fill="#0070E0"/>
<path d="M8.8399 10H6.35081C6.18066 10 6.03579 10.123 6.00916 10.2899L5.00257 16.63C4.98276 16.7551 5.08009 16.8685 5.20762 16.8685H6.39612C6.56627 16.8685 6.71114 16.7455 6.73777 16.5784L7.00939 14.868C7.0359 14.701 7.18077 14.5781 7.35092 14.5781H8.13859C9.77815 14.5781 10.7243 13.7898 10.9717 12.2276C11.083 11.5445 10.9762 11.0076 10.6542 10.6319C10.2999 10.2185 9.67254 10 8.8399 10ZM9.12707 12.3155C8.99104 13.2031 8.30864 13.2031 7.64872 13.2031H7.27317L7.53651 11.546C7.55251 11.446 7.63932 11.3722 7.74146 11.3722H7.91363C8.36289 11.3722 8.78732 11.3722 9.00603 11.6264C9.13691 11.7785 9.17652 12.0039 9.12707 12.3155Z" fill="#003087"/>
<path d="M16.2795 12.2872H15.0878C14.9857 12.2872 14.8988 12.361 14.8828 12.4612L14.8304 12.7923L14.747 12.6725C14.4888 12.3001 13.9136 12.1758 13.3391 12.1758C12.0224 12.1758 10.8975 13.1671 10.6786 14.5575C10.5646 15.2509 10.7263 15.9138 11.1222 16.3763C11.4859 16.8014 12.005 16.9783 12.6234 16.9783C13.6847 16.9783 14.2735 16.3008 14.2735 16.3008L14.2202 16.63C14.2002 16.7551 14.2975 16.8685 14.4252 16.8685H15.4986C15.6687 16.8685 15.8135 16.7455 15.8401 16.5785L16.4846 12.5254C16.5043 12.4002 16.407 12.2872 16.2795 12.2872ZM14.6184 14.5917C14.5034 15.2683 13.9627 15.7223 13.2731 15.7223C12.9275 15.7223 12.6507 15.6119 12.4728 15.4028C12.2965 15.1955 12.2302 14.9002 12.2861 14.5713C12.3934 13.9009 12.9428 13.432 13.6218 13.432C13.9602 13.432 14.2351 13.5436 14.4164 13.7545C14.599 13.9671 14.6707 14.2643 14.6184 14.5917Z" fill="#003087"/>
<path d="M34.0327 12.2872H32.841C32.7388 12.2872 32.6519 12.361 32.636 12.4612L32.5834 12.7923L32.5002 12.6725C32.2419 12.3001 31.6668 12.1758 31.0923 12.1758C29.7755 12.1758 28.6507 13.1671 28.4319 14.5575C28.3178 15.2509 28.4798 15.9138 28.8755 16.3763C29.2392 16.8014 29.7584 16.9783 30.3767 16.9783C31.438 16.9783 32.0268 16.3008 32.0268 16.3008L31.9735 16.63C31.9535 16.7551 32.0507 16.8685 32.1785 16.8685H33.2519C33.422 16.8685 33.5667 16.7455 33.5934 16.5785L34.2378 12.5254C34.2577 12.4002 34.1602 12.2872 34.0327 12.2872ZM32.3718 14.5917C32.2567 15.2683 31.7161 15.7223 31.0266 15.7223C30.6807 15.7223 30.4041 15.6119 30.2261 15.4028C30.0499 15.1955 29.9835 14.9002 30.0394 14.5713C30.1468 13.9009 30.696 13.432 31.375 13.432C31.7133 13.432 31.9882 13.5436 32.1698 13.7545C32.3521 13.9671 32.4239 14.2643 32.3718 14.5917Z" fill="#0070E0"/>
<path d="M22.6276 12.2872H21.4296C21.3151 12.2872 21.208 12.3438 21.1435 12.4378L19.4909 14.8555L18.7905 12.5323C18.7466 12.3869 18.612 12.2872 18.4593 12.2872H17.2816C17.1395 12.2872 17.0394 12.4261 17.0852 12.5599L18.4044 16.4062L17.1636 18.1451C17.0662 18.2817 17.1645 18.4705 17.333 18.4705H18.5297C18.6432 18.4705 18.7494 18.4152 18.8139 18.3227L22.7981 12.6108C22.8934 12.4741 22.7949 12.2872 22.6276 12.2872Z" fill="#003087"/>
<path d="M35.4376 10.1741L34.4159 16.6302C34.3961 16.7553 34.4933 16.8686 34.6208 16.8686H35.6483C35.8185 16.8686 35.9633 16.7456 35.9901 16.5787L36.9973 10.2386C37.0173 10.1135 36.92 10.0002 36.7924 10.0002H35.6426C35.5404 10 35.4534 10.0739 35.4376 10.1741Z" fill="#0070E0"/>
</svg>
