<svg width="42" height="28" viewBox="0 0 42 28" fill="none" xmlns="http://www.w3.org/2000/svg">
<rect width="42" height="28" rx="3.11111" fill="#464646"/>
<rect x="0.777778" y="0.777778" width="40.4444" height="26.4444" rx="2.33333" stroke="black" stroke-opacity="0.2" stroke-width="1.55556"/>
<path d="M18.4773 16.9091V16.6023C18.4773 15.8991 18.5327 15.3388 18.6435 14.9212C18.7543 14.5036 18.9183 14.169 19.1357 13.9176C19.353 13.6619 19.6193 13.4318 19.9347 13.2273C20.2074 13.0483 20.4503 12.8757 20.6634 12.7095C20.8807 12.5433 21.0511 12.3665 21.1747 12.179C21.3026 11.9915 21.3665 11.7784 21.3665 11.5398C21.3665 11.3267 21.3153 11.1392 21.2131 10.9773C21.1108 10.8153 20.9723 10.6896 20.7976 10.6001C20.6229 10.5107 20.429 10.4659 20.2159 10.4659C19.9858 10.4659 19.7727 10.5192 19.5767 10.6257C19.385 10.7322 19.2294 10.8793 19.1101 11.0668C18.995 11.2543 18.9375 11.4716 18.9375 11.7188H15.6648C15.6733 10.7813 15.8864 10.0206 16.304 9.43679C16.7216 8.84872 17.2756 8.41832 17.9659 8.1456C18.6563 7.86861 19.4148 7.73011 20.2415 7.73011C21.1534 7.73011 21.9673 7.86435 22.6832 8.13281C23.3992 8.39702 23.9638 8.79759 24.3771 9.33452C24.7905 9.86719 24.9972 10.5341 24.9972 11.3352C24.9972 11.8509 24.9077 12.3047 24.7287 12.6967C24.554 13.0845 24.309 13.4276 23.9936 13.7259C23.6825 14.0199 23.3182 14.2884 22.9006 14.5313C22.5938 14.7102 22.3359 14.8956 22.1271 15.0874C21.9183 15.2749 21.7607 15.4901 21.6541 15.733C21.5476 15.9716 21.4943 16.2614 21.4943 16.6023V16.9091H18.4773ZM20.0369 21.2045C19.5426 21.2045 19.1186 21.032 18.7649 20.6868C18.4155 20.3374 18.2429 19.9134 18.2472 19.4148C18.2429 18.929 18.4155 18.5135 18.7649 18.1683C19.1186 17.8232 19.5426 17.6506 20.0369 17.6506C20.5057 17.6506 20.919 17.8232 21.277 18.1683C21.6392 18.5135 21.8225 18.929 21.8267 19.4148C21.8225 19.7472 21.7351 20.0497 21.5646 20.3224C21.3984 20.5909 21.1811 20.8061 20.9126 20.968C20.6442 21.1257 20.3523 21.2045 20.0369 21.2045Z" fill="#A6A6A6"/>
</svg>
