<svg width="43" height="28" viewBox="0 0 43 28" fill="none" xmlns="http://www.w3.org/2000/svg">
<rect x="0.444336" width="42" height="28" rx="3.11111" fill="#1434CB"/>
<rect x="1.22211" y="0.777778" width="40.4444" height="26.4444" rx="2.33333" stroke="black" stroke-opacity="0.2" stroke-width="1.55556"/>
<path d="M26.388 8.53379C24.0685 8.53379 21.9958 9.73601 21.9958 11.9572C21.9958 14.5045 25.6719 14.6804 25.6719 15.9601C25.6719 16.4989 25.0544 16.9813 23.9998 16.9813C22.503 16.9813 21.3843 16.3073 21.3843 16.3073L20.9057 18.5487C20.9057 18.5487 22.1944 19.118 23.9053 19.118C26.4412 19.118 28.4367 17.8568 28.4367 15.5976C28.4367 12.9059 24.7452 12.7352 24.7452 11.5475C24.7452 11.1254 25.2521 10.6629 26.3037 10.6629C27.4903 10.6629 28.4584 11.1531 28.4584 11.1531L28.9268 8.98821C28.9268 8.98821 27.8735 8.53379 26.388 8.53379V8.53379ZM5.16717 8.69718L5.111 9.02395C5.111 9.02395 6.08681 9.20254 6.96567 9.55878C8.09729 9.96728 8.1779 10.2051 8.36848 10.9437L10.4452 18.9496H13.2292L17.518 8.69718H14.7405L11.9846 15.6678L10.8601 9.75918C10.757 9.08294 10.2346 8.69718 9.59514 8.69718H5.16717V8.69718ZM18.6349 8.69718L16.456 18.9496H19.1046L21.2758 8.69718H18.6349V8.69718ZM33.4071 8.69718C32.7685 8.69718 32.4301 9.03911 32.1818 9.63664L28.3014 18.9496H31.0789L31.6163 17.3974H35.0001L35.3269 18.9496H37.7777L35.6396 8.69718H33.4071V8.69718ZM33.7684 11.4671L34.5917 15.3142H32.386L33.7684 11.4671V11.4671Z" fill="white"/>
</svg>
